<?xml version="1.0" encoding="UTF-8"?>
<!-- Generator: Adobe Illustrator 22.0.1, SVG Export Plug-In . SVG Version: 6.00 Build 0)  -->
<svg xmlns="http://www.w3.org/2000/svg" xmlns:xlink="http://www.w3.org/1999/xlink" xmlns:dc="http://purl.org/dc/elements/1.1/" xmlns:cc="http://creativecommons.org/ns#" xmlns:rdf="http://www.w3.org/1999/02/22-rdf-syntax-ns#" version="1.1" id="designs" x="0px" y="0px" width="32px" height="32px" viewBox="0 0 32 32" style="enable-background:new 0 0 32 32;" xml:space="preserve">
<title property="dc:title">to launch</title><desc property="dc:description">An icon for "launch" from the Science and Fiction series on to [icon]. Downloaded from http://www.toicon.com/icons/science-and-fiction_launch by 176.36.65.45 on 2020-04-24. Licensed CC-BY, see http://toicon.com/license/ for details.</desc>
<path class="scienceandfiction_een" d="M22,17c-0.366,0-0.705,0.106-1,0.277V10c0-2.761-5-8-5-8s-5,5.239-5,8v7.277  C10.705,17.106,10.366,17,10,17c-1.105,0-2,0.895-2,2v6h4v-2h1.667L13,25h6l-0.667-2H20v2h4v-6C24,17.895,23.105,17,22,17z   M16,3.479C16.41,3.942,16.843,4.461,17.268,5h-2.534C15.158,4.462,15.59,3.942,16,3.479z M10,18c0.551,0,1,0.449,1,1H9  C9,18.449,9.449,18,10,18z M11,24H9v-4h2V24z M17.613,24h-3.225l0.333-1h2.558L17.613,24z M18,22h-4h-2v-3v-9  c0-0.953,0.894-2.509,2-4.033V6h4V5.965c1.106,1.524,2,3.08,2,4.035v9v3H18z M23,24h-2v-4h2V24z M21,19c0-0.551,0.449-1,1-1  s1,0.449,1,1H21z" style="fill: #2B4099;"/>
<path class="scienceandfiction_twee" d="M16,10c1.103,0,2,0.897,2,2s-0.897,2-2,2s-2-0.897-2-2S14.897,10,16,10z M16,9  c-1.657,0-3,1.343-3,3s1.343,3,3,3s3-1.343,3-3S17.657,9,16,9L16,9z M16,27c0.267,0,0.518,0.104,0.707,0.293  c0.39,0.39,0.39,1.024,0,1.414L16,29.414l-0.707-0.707c-0.39-0.39-0.39-1.024,0-1.414C15.482,27.104,15.733,27,16,27z M16,26  c-0.512,0-1.024,0.195-1.414,0.586h0c-0.781,0.781-0.781,2.047,0,2.828L16,30.828l1.414-1.414c0.781-0.781,0.781-2.047,0-2.828h0  C17.024,26.195,16.512,26,16,26L16,26z M9,26H8v3h1V26L9,26z M11,26h-1v1h1V26L11,26z M22,26h-1v1h1V26L22,26z M11,28h-1v3h1V28  L11,28z M22,28h-1v3h1V28L22,28z M24,26h-1v3h1V26L24,26z M28,13.5c0-0.276,0.224-0.5,0.5-0.5s0.5,0.224,0.5,0.5S28.776,14,28.5,14  S28,13.776,28,13.5z M27,13.5c0,0.828,0.672,1.5,1.5,1.5s1.5-0.672,1.5-1.5S29.328,12,28.5,12S27,12.672,27,13.5L27,13.5z M5,2.5  C5,2.224,5.224,2,5.5,2S6,2.224,6,2.5S5.776,3,5.5,3S5,2.776,5,2.5z M4,2.5C4,3.328,4.672,4,5.5,4S7,3.328,7,2.5S6.328,1,5.5,1  S4,1.672,4,2.5L4,2.5z M28,7h1v1h-1V7L28,7z M2,7h1v1H2V7L2,7z M7,7h1v1H7V7L7,7z M4,11h1v1H4V11L4,11z M28,2h1v1h-1V2L28,2z M6,15  h1v1H6V15L6,15z M12,2h1v1h-1V2L12,2z M24,9h1v1h-1V9L24,9z M25,4v1h-1V4H25z M21,1h1v1h-1V1L21,1z" style="fill: #CC2954;"/>
<metadata><work rdf:about=""><format>image/svg+xml</format><type rdf:resource="http://purl.org/dc/dcmitype/StillImage"/><license rdf:resource="http://creativecommons.org/licenses/by/4.0/"/><attributionname>Kamila Piątkowska</attributionname><attributionurl>http://www.toicon.com/icons/science-and-fiction_launch</attributionurl></work></metadata></svg>
